HIERARCHY
ROOT Hips
{
    OFFSET 0.000000 0.000000 0.000000
    CHANNELS 6 Xposition Yposition Zposition Zrotation Xrotation Yrotation
    JOINT Spine
    {
        OFFSET 0.000002 7.164412 0.000002
        CHANNELS 3 Zrotation Xrotation Yrotation
        JOINT Spine1
        {
            OFFSET -0.000001 20.126801 -0.000002
            CHANNELS 3 Zrotation Xrotation Yrotation
            JOINT Neck
            {
                OFFSET 0.000000 21.094069 0.000000
                CHANNELS 3 Zrotation Xrotation Yrotation
                JOINT Head
                {
                    OFFSET -0.000001 12.838277 1.776080
                    CHANNELS 3 Zrotation Xrotation Yrotation
                    End Site
                    {
                        OFFSET 0.000000 17.760757 0.000000
                    }
                }
            }
            JOINT LeftShoulder
            {
                OFFSET 3.550527 15.465700 -0.908803
                CHANNELS 3 Zrotation Xrotation Yrotation
                JOINT LeftArm
                {
                    OFFSET 12.513296 -0.000006 -0.000002
                    CHANNELS 3 Zrotation Xrotation Yrotation
                    JOINT LeftForeArm
                    {
                        OFFSET 24.225996 -0.000003 0.000001
                        CHANNELS 3 Zrotation Xrotation Yrotation
                        JOINT LeftHand
                        {
                            OFFSET 20.711399 -0.000005 -0.000004
                            CHANNELS 3 Zrotation Xrotation Yrotation
                            JOINT LeftHandThumb1
                            {
                                OFFSET 2.121969 -2.411331 3.375859
                                CHANNELS 3 Zrotation Xrotation Yrotation
                                JOINT LeftHandThumb2
                                {
                                    OFFSET 2.803208 0.000003 0.000001
                                    CHANNELS 3 Zrotation Xrotation Yrotation
                                    JOINT LeftHandThumb3
                                    {
                                        OFFSET 2.395929 0.000004 -0.000003
                                        CHANNELS 3 Zrotation Xrotation Yrotation
                                        End Site
                                        {
                                            OFFSET 2.127676 0.000000 0.000000
                                        }
                                    }
                                }
                            }
                            JOINT LeftHandIndex1
                            {
                                OFFSET 8.680775 0.000005 3.375860
                                CHANNELS 3 Zrotation Xrotation Yrotation
                                JOINT LeftHandIndex2
                                {
                                    OFFSET 4.218178 -0.000000 -0.000000
                                    CHANNELS 3 Zrotation Xrotation Yrotation
                                    JOINT LeftHandIndex3
                                    {
                                        OFFSET 2.109086 -0.000004 0.000002
                                        CHANNELS 3 Zrotation Xrotation Yrotation
                                        End Site
                                        {
                                            OFFSET 1.872952 0.000000 0.000000
                                        }
                                    }
                                }
                            }
                            JOINT LeftHandMiddle1
                            {
                                OFFSET 8.680778 -0.000002 1.118860
                                CHANNELS 3 Zrotation Xrotation Yrotation
                                JOINT LeftHandMiddle2
                                {
                                    OFFSET 4.640003 -0.000004 -0.000001
                                    CHANNELS 3 Zrotation Xrotation Yrotation
                                    JOINT LeftHandMiddle3
                                    {
                                        OFFSET 2.530911 0.000002 -0.000001
                                        CHANNELS 3 Zrotation Xrotation Yrotation
                                        End Site
                                        {
                                            OFFSET 2.247544 0.000000 0.000000
                                        }
                                    }
                                }
                            }
                            JOINT LeftHandRing1
                            {
                                OFFSET 8.198517 0.000004 -1.118860
                                CHANNELS 3 Zrotation Xrotation Yrotation
                                JOINT LeftHandRing2
                                {
                                    OFFSET 4.218183 -0.000002 -0.000002
                                    CHANNELS 3 Zrotation Xrotation Yrotation
                                    JOINT LeftHandRing3
                                    {
                                        OFFSET 2.109094 0.000005 -0.000000
                                        CHANNELS 3 Zrotation Xrotation Yrotation
                                        End Site
                                        {
                                            OFFSET 1.872952 0.000000 0.000000
                                        }
                                    }
                                }
                            }
                            JOINT LeftHandPinky1
                            {
                                OFFSET 7.716254 0.000002 -3.375863
                                CHANNELS 3 Zrotation Xrotation Yrotation
                                JOINT LeftHandPinky2
                                {
                                    OFFSET 3.374536 0.000002 0.000001
                                    CHANNELS 3 Zrotation Xrotation Yrotation
                                    JOINT LeftHandPinky3
                                    {
                                        OFFSET 1.687274 -0.000002 -0.000004
                                        CHANNELS 3 Zrotation Xrotation Yrotation
                                        End Site
                                        {
                                            OFFSET 1.498360 0.000000 0.000000
                                        }
                                    }
                                }
                            }
                        }
                    }
                }
            }
            JOINT RightShoulder
            {
                OFFSET -3.550529 15.465699 -0.908801
                CHANNELS 3 Zrotation Xrotation Yrotation
                JOINT RightArm
                {
                    OFFSET -12.513299 -0.000001 -0.000000
                    CHANNELS 3 Zrotation Xrotation Yrotation
                    JOINT RightForeArm
                    {
                        OFFSET -24.226000 -0.000003 -0.000001
                        CHANNELS 3 Zrotation Xrotation Yrotation
                        JOINT RightHand
                        {
                            OFFSET -20.711397 -0.000003 -0.000002
                            CHANNELS 3 Zrotation Xrotation Yrotation
                            JOINT RightHandThumb1
                            {
                                OFFSET -2.121970 -2.411331 3.375859
                                CHANNELS 3 Zrotation Xrotation Yrotation
                                JOINT RightHandThumb2
                                {
                                    OFFSET -2.803209 -0.000004 0.000004
                                    CHANNELS 3 Zrotation Xrotation Yrotation
                                    JOINT RightHandThumb3
                                    {
                                        OFFSET -2.395928 0.000004 -0.000003
                                        CHANNELS 3 Zrotation Xrotation Yrotation
                                        End Site
                                        {
                                            OFFSET -2.127676 0.000000 0.000000
                                        }
                                    }
                                }
                            }
                            JOINT RightHandIndex1
                            {
                                OFFSET -8.680779 0.000001 3.375859
                                CHANNELS 3 Zrotation Xrotation Yrotation
                                JOINT RightHandIndex2
                                {
                                    OFFSET -4.218179 0.000003 -0.000001
                                    CHANNELS 3 Zrotation Xrotation Yrotation
                                    JOINT RightHandIndex3
                                    {
                                        OFFSET -2.109090 -0.000002 0.000000
                                        CHANNELS 3 Zrotation Xrotation Yrotation
                                        End Site
                                        {
                                            OFFSET -1.872952 0.000000 0.000000
                                        }
                                    }
                                }
                            }
                            JOINT RightHandMiddle1
                            {
                                OFFSET -8.680779 -0.000002 1.118859
                                CHANNELS 3 Zrotation Xrotation Yrotation
                                JOINT RightHandMiddle2
                                {
                                    OFFSET -4.639998 0.000003 -0.000001
                                    CHANNELS 3 Zrotation Xrotation Yrotation
                                    JOINT RightHandMiddle3
                                    {
                                        OFFSET -2.530910 -0.000000 -0.000000
                                        CHANNELS 3 Zrotation Xrotation Yrotation
                                        End Site
                                        {
                                            OFFSET -2.247544 0.000000 0.000000
                                        }
                                    }
                                }
                            }
                            JOINT RightHandRing1
                            {
                                OFFSET -8.198519 -0.000004 -1.118859
                                CHANNELS 3 Zrotation Xrotation Yrotation
                                JOINT RightHandRing2
                                {
                                    OFFSET -4.218180 -0.000005 0.000000
                                    CHANNELS 3 Zrotation Xrotation Yrotation
                                    JOINT RightHandRing3
                                    {
                                        OFFSET -2.109090 0.000002 0.000002
                                        CHANNELS 3 Zrotation Xrotation Yrotation
                                        End Site
                                        {
                                            OFFSET -1.872952 0.000000 0.000000
                                        }
                                    }
                                }
                            }
                            JOINT RightHandPinky1
                            {
                                OFFSET -7.716249 0.000004 -3.375858
                                CHANNELS 3 Zrotation Xrotation Yrotation
                                JOINT RightHandPinky2
                                {
                                    OFFSET -3.374539 0.000003 -0.000000
                                    CHANNELS 3 Zrotation Xrotation Yrotation
                                    JOINT RightHandPinky3
                                    {
                                        OFFSET -1.687270 -0.000004 -0.000001
                                        CHANNELS 3 Zrotation Xrotation Yrotation
                                        End Site
                                        {
                                            OFFSET -1.498360 0.000000 0.000000
                                        }
                                    }
                                }
                            }
                        }
                    }
                }
            }
        }
    }
    JOINT LeftUpLeg
    {
        OFFSET 8.880377 0.000003 0.000001
        CHANNELS 3 Zrotation Xrotation Yrotation
        JOINT LeftLeg
        {
            OFFSET -0.000000 -40.387413 0.000001
            CHANNELS 3 Zrotation Xrotation Yrotation
            JOINT LeftFoot
            {
                OFFSET -0.000000 -36.911304 0.000000
                CHANNELS 3 Zrotation Xrotation Yrotation
                JOINT LeftToeBase
                {
                    OFFSET 0.000003 -5.772240 13.320597
                    CHANNELS 3 Zrotation Xrotation Yrotation
                    End Site
                    {
                        OFFSET 0.000000 0.000000 3.552151
                    }
                }
            }
        }
    }
    JOINT RightUpLeg
    {
        OFFSET -8.880380 -0.000003 -0.000001
        CHANNELS 3 Zrotation Xrotation Yrotation
        JOINT RightLeg
        {
            OFFSET 0.000001 -40.387405 0.000000
            CHANNELS 3 Zrotation Xrotation Yrotation
            JOINT RightFoot
            {
                OFFSET -0.000001 -36.911304 -0.000001
                CHANNELS 3 Zrotation Xrotation Yrotation
                JOINT RightToeBase
                {
                    OFFSET 0.000000 -5.772241 13.320600
                    CHANNELS 3 Zrotation Xrotation Yrotation
                    End Site
                    {
                        OFFSET 0.000000 0.000000 3.552151
                    }
                }
            }
        }
    }
}
MOTION
Frames: 4
Frame Time: 0.013889
72.959862    79.688553    -9.182331    5.156373    0.652861    -2.408132    -1.281952    -10.664912    -6.894726    9.249058    14.032790    -8.881223    8.687840    -14.997663    10.044780    4.539868    5.916541    7.537252    7.847571    -2.824902    -12.158076    -23.207817    37.122246    -70.120544    44.730057    3.798294    -86.174271    48.610851    -6.727810    -15.540155    28.502649    36.440174    -45.189072    -12.514004    -0.261244    23.316092    -0.000000    0.000000    -0.000000    6.022319    17.906975    -1.521453    5.729578    -0.000000    -0.000001    5.729575    -0.000001    0.000001    5.800517    8.954671    -0.737667    5.729585    0.000000    -0.000003    5.729575    -0.000000    -0.000001    5.800518    -8.954668    -4.823685    5.729582    -0.000003    -0.000004    5.729581    0.000003    -0.000001    6.022322    -17.906975    -9.601264    5.729578    0.000003    -0.000004    5.729569    0.000000    0.000008    6.528183    7.127479    11.429589    12.009898    55.509693    22.913734    -8.166629    5.978446    54.028740    -23.731892    22.667849    35.698231    -32.201332    33.510529    44.941998    17.450632    -2.383978    -23.202055    -0.000000    0.000000    -0.000000    -6.022322    17.906977    1.513867    -5.729581    -0.000000    0.000006    -5.729577    0.000000    -0.000004    -5.800521    8.954676    0.733883    -5.729576    0.000000    -0.000003    -5.729578    -0.000002    0.000001    -5.800516    -8.954670    1.341319    -5.729579    -0.000000    0.000000    -5.729580    0.000006    0.000007    -6.022323    -17.906981    2.636522    -5.729579    0.000003    0.000003    -5.729578    -0.000007    -0.000000    -11.508314    -31.471989    -6.685062    0.000002    66.632523    -0.000002    1.734796    3.076366    11.189236    -0.000000    0.543747    -0.000000    -12.244743    -15.220583    -13.329182    -0.000001    43.102539    0.000001    6.749189    -22.795900    3.451440    -0.000000    -0.062867    0.000003    
73.036667    79.618088    -9.075682    4.852522    0.755770    -2.231481    -1.299900    -10.809901    -6.898572    9.234445    14.047972    -8.879802    9.310289    -14.782755    9.952397    4.661300    5.907302    7.278907    7.838335    -2.592106    -12.119795    -22.635096    37.399075    -70.148552    44.143768    4.116183    -85.770264    48.090218    -6.803273    -15.900411    28.546473    36.404472    -45.178566    -12.569643    -0.285227    23.315826    -0.000000    0.000000    -0.000000    6.022320    17.906973    -1.561730    5.729577    0.000000    0.000001    5.729582    -0.000002    0.000001    5.800510    8.954671    -0.757805    5.729579    0.000002    0.000003    5.729579    -0.000001    -0.000003    5.800517    -8.954673    -4.823689    5.729579    0.000001    0.000004    5.729579    -0.000001    -0.000002    6.022311    -17.906973    -9.601262    5.729576    -0.000002    -0.000004    5.729579    0.000003    0.000002    6.675118    7.102417    11.377497    12.245588    55.393791    22.797762    -8.450521    6.240101    53.810143    -23.701372    22.620842    35.707565    -32.157841    33.504570    45.349300    17.520239    -2.413789    -23.199142    -0.000000    0.000000    -0.000000    -6.022319    17.906971    0.911248    -5.729576    0.000000    -0.000002    -5.729579    -0.000001    -0.000002    -5.800515    8.954670    0.432560    -5.729574    -0.000002    0.000001    -5.729577    -0.000000    0.000001    -5.800515    -8.954669    1.198804    -5.729578    -0.000000    0.000002    -5.729581    0.000003    -0.000002    -6.022316    -17.906971    2.351493    -5.729580    0.000003    0.000005    -5.729577    0.000000    -0.000002    -10.393847    -31.309895    -6.925306    -0.000001    66.619148    0.000000    2.453071    2.138503    12.016685    0.000001    0.517865    0.000000    -11.941510    -15.263576    -13.197304    -0.000000    43.255733    -0.000000    6.572299    -22.823242    3.131737    0.000000    -0.049992    0.000001    
73.125992    79.557976    -8.971710    4.528198    0.870688    -2.075309    -1.309592    -10.937344    -6.870287    9.226930    14.072270    -8.851039    9.931945    -14.681235    9.854430    4.762862    5.846961    7.010619    7.808683    -2.385187    -12.102859    -22.077227    37.709080    -70.249321    43.363972    4.480225    -85.271912    47.144947    -7.240996    -16.246569    28.867416    36.142662    -45.497147    -12.484615    -0.248576    23.316227    -0.000000    0.000000    -0.000000    6.022318    17.906975    -1.572956    5.729580    -0.000000    -0.000001    5.729586    0.000002    -0.000001    5.800515    8.954670    -0.763421    5.729579    0.000001    -0.000001    5.729577    0.000000    0.000001    5.800517    -8.954670    -4.823689    5.729576    0.000000    0.000003    5.729583    -0.000001    -0.000004    6.022326    -17.906973    -9.601258    5.729573    0.000004    0.000005    5.729580    -0.000003    0.000000    6.910684    7.064116    11.337103    13.016424    55.145248    22.326586    -8.100745    6.055742    53.454781    -23.563850    22.903698    34.911877    -32.013504    33.590504    45.646450    17.638708    -2.464507    -23.194105    -0.000000    0.000000    -0.000000    -6.022322    17.906971    0.447496    -5.729576    0.000001    0.000001    -5.729576    0.000001    0.000005    -5.800516    8.954671    0.200690    -5.729577    -0.000002    -0.000003    -5.729579    0.000002    0.000001    -5.800513    -8.954676    1.074507    -5.729579    0.000004    -0.000002    -5.729579    0.000007    0.000002    -6.022320    -17.906981    2.102890    -5.729578    0.000007    0.000004    -5.729577    0.000000    -0.000000    -9.204712    -31.089806    -7.209823    0.000002    66.491348    -0.000002    3.160462    1.275469    12.958287    -0.000002    0.499912    -0.000001    -11.642585    -15.295167    -13.148345    0.000001    43.323074    -0.000002    6.362726    -22.901762    2.843235    0.000000    -0.086258    -0.000003    
73.225090    79.477844    -8.815915    4.073660    0.994600    -1.849095    -1.329782    -11.166606    -6.835111    9.092913    14.135149    -8.784986    10.870182    -14.387625    9.690434    4.951548    5.867854    6.600019    7.892581    -2.094622    -12.092323    -21.448038    38.239281    -70.407921    41.410595    4.854640    -84.518929    44.754063    -8.550065    -16.652243    29.416632    35.681969    -46.090084    -12.322973    -0.178915    23.316826    -0.000000    0.000000    -0.000000    6.022320    17.906975    -1.726356    5.729579    -0.000000    -0.000000    5.729580    0.000001    -0.000000    5.800518    8.954671    -0.840120    5.729583    0.000000    -0.000001    5.729578    0.000001    0.000000    5.800517    -8.954669    -4.803702    5.729579    0.000002    -0.000001    5.729579    -0.000003    0.000001    6.022319    -17.906973    -9.561291    5.729577    0.000004    0.000005    5.729576    0.000000    0.000002    7.006746    7.093061    11.357206    13.919196    54.875938    21.978426    -7.211386    5.352610    53.600628    -22.115427    25.079035    31.726929    -32.110203    33.384560    46.928616    17.700911    -2.491136    -23.191410    -0.000000    0.000000    -0.000000    -6.022318    17.906975    0.902593    -5.729579    -0.000002    -0.000000    -5.729577    0.000000    -0.000004    -5.800512    8.954671    0.428236    -5.729581    -0.000000    0.000002    -5.729578    -0.000000    0.000002    -5.800514    -8.954671    1.130435    -5.729579    0.000000    -0.000003    -5.729578    -0.000000    0.000003    -6.022324    -17.906971    2.214753    -5.729579    0.000000    -0.000002    -5.729578    -0.000000    0.000001    -7.474629    -30.715689    -7.599250    -0.000001    66.203575    0.000001    4.113835    0.533095    14.272671    -0.000001    0.552983    -0.000001    -11.220846    -15.292220    -13.113516    -0.000001    43.418266    0.000001    6.221386    -22.941530    2.560037    0.000000    -0.140750    -0.000001    
